<mxfile host="app.diagrams.net" agent="Mozilla/5.0 (X11; Linux x86_64; rv:126.0) Gecko/20100101 Firefox/126.0" version="24.8.3">
  <diagram name="Page-1" id="HcJHUl06xo1zprfPt9uz">
    <mxGraphModel dx="2268" dy="-362" grid="1" gridSize="10" guides="1" tooltips="1" connect="1" arrows="1" fold="1" page="1" pageScale="1" pageWidth="850" pageHeight="1100" math="0" shadow="0">
      <root>
        <mxCell id="0" />
        <mxCell id="1" parent="0" />
        <mxCell id="VsHe4cQHPtOiA9iz4xQq-102" value="&lt;b&gt;User&lt;/b&gt;" style="swimlane;fontStyle=0;childLayout=stackLayout;horizontal=1;startSize=26;fillColor=none;horizontalStack=0;resizeParent=1;resizeParentMax=0;resizeLast=0;collapsible=1;marginBottom=0;whiteSpace=wrap;html=1;" parent="1" vertex="1">
          <mxGeometry x="-610" y="1330" width="290" height="410" as="geometry" />
        </mxCell>
        <mxCell id="VsHe4cQHPtOiA9iz4xQq-103" value="+ UserID: int" style="text;strokeColor=none;fillColor=none;align=left;verticalAlign=top;spacingLeft=4;spacingRight=4;overflow=hidden;rotatable=0;points=[[0,0.5],[1,0.5]];portConstraint=eastwest;whiteSpace=wrap;html=1;" parent="VsHe4cQHPtOiA9iz4xQq-102" vertex="1">
          <mxGeometry y="26" width="290" height="26" as="geometry" />
        </mxCell>
        <mxCell id="VsHe4cQHPtOiA9iz4xQq-107" value="- _password: string" style="text;strokeColor=none;fillColor=none;align=left;verticalAlign=top;spacingLeft=4;spacingRight=4;overflow=hidden;rotatable=0;points=[[0,0.5],[1,0.5]];portConstraint=eastwest;whiteSpace=wrap;html=1;" parent="VsHe4cQHPtOiA9iz4xQq-102" vertex="1">
          <mxGeometry y="52" width="290" height="26" as="geometry" />
        </mxCell>
        <mxCell id="VsHe4cQHPtOiA9iz4xQq-104" value="+ FirstName: string" style="text;strokeColor=none;fillColor=none;align=left;verticalAlign=top;spacingLeft=4;spacingRight=4;overflow=hidden;rotatable=0;points=[[0,0.5],[1,0.5]];portConstraint=eastwest;whiteSpace=wrap;html=1;" parent="VsHe4cQHPtOiA9iz4xQq-102" vertex="1">
          <mxGeometry y="78" width="290" height="26" as="geometry" />
        </mxCell>
        <mxCell id="VsHe4cQHPtOiA9iz4xQq-105" value="+ LastName: string" style="text;strokeColor=none;fillColor=none;align=left;verticalAlign=top;spacingLeft=4;spacingRight=4;overflow=hidden;rotatable=0;points=[[0,0.5],[1,0.5]];portConstraint=eastwest;whiteSpace=wrap;html=1;" parent="VsHe4cQHPtOiA9iz4xQq-102" vertex="1">
          <mxGeometry y="104" width="290" height="26" as="geometry" />
        </mxCell>
        <mxCell id="8GnqbFCGLRigF7MGzgQY-35" value="+ Dob: Date" style="text;strokeColor=none;fillColor=none;align=left;verticalAlign=top;spacingLeft=4;spacingRight=4;overflow=hidden;rotatable=0;points=[[0,0.5],[1,0.5]];portConstraint=eastwest;whiteSpace=wrap;html=1;" parent="VsHe4cQHPtOiA9iz4xQq-102" vertex="1">
          <mxGeometry y="130" width="290" height="26" as="geometry" />
        </mxCell>
        <mxCell id="VsHe4cQHPtOiA9iz4xQq-106" value="+ UserName: string" style="text;strokeColor=none;fillColor=none;align=left;verticalAlign=top;spacingLeft=4;spacingRight=4;overflow=hidden;rotatable=0;points=[[0,0.5],[1,0.5]];portConstraint=eastwest;whiteSpace=wrap;html=1;" parent="VsHe4cQHPtOiA9iz4xQq-102" vertex="1">
          <mxGeometry y="156" width="290" height="26" as="geometry" />
        </mxCell>
        <mxCell id="8GnqbFCGLRigF7MGzgQY-14" value="+ Membership: Membership" style="text;html=1;align=left;verticalAlign=middle;resizable=0;points=[];autosize=1;strokeColor=none;fillColor=none;" parent="VsHe4cQHPtOiA9iz4xQq-102" vertex="1">
          <mxGeometry y="182" width="290" height="30" as="geometry" />
        </mxCell>
        <mxCell id="VsHe4cQHPtOiA9iz4xQq-108" value="+ WrittenReviews: List&amp;lt;Review&amp;gt;" style="text;strokeColor=none;fillColor=none;align=left;verticalAlign=top;spacingLeft=4;spacingRight=4;overflow=hidden;rotatable=0;points=[[0,0.5],[1,0.5]];portConstraint=eastwest;whiteSpace=wrap;html=1;" parent="VsHe4cQHPtOiA9iz4xQq-102" vertex="1">
          <mxGeometry y="212" width="290" height="26" as="geometry" />
        </mxCell>
        <mxCell id="VsHe4cQHPtOiA9iz4xQq-110" value="+ WatchList: List&amp;lt;Media&amp;gt;" style="text;strokeColor=none;fillColor=none;align=left;verticalAlign=top;spacingLeft=4;spacingRight=4;overflow=hidden;rotatable=0;points=[[0,0.5],[1,0.5]];portConstraint=eastwest;whiteSpace=wrap;html=1;" parent="VsHe4cQHPtOiA9iz4xQq-102" vertex="1">
          <mxGeometry y="238" width="290" height="26" as="geometry" />
        </mxCell>
        <mxCell id="9-BU_oQjRqdLFqG4qw6S-31" value="+ MembershipPayment: Payment" style="text;strokeColor=none;fillColor=none;align=left;verticalAlign=top;spacingLeft=4;spacingRight=4;overflow=hidden;rotatable=0;points=[[0,0.5],[1,0.5]];portConstraint=eastwest;whiteSpace=wrap;html=1;" parent="VsHe4cQHPtOiA9iz4xQq-102" vertex="1">
          <mxGeometry y="264" width="290" height="26" as="geometry" />
        </mxCell>
        <mxCell id="VsHe4cQHPtOiA9iz4xQq-109" value="" style="line;strokeWidth=1;fillColor=none;align=left;verticalAlign=middle;spacingTop=-1;spacingLeft=3;spacingRight=3;rotatable=0;labelPosition=right;points=[];portConstraint=eastwest;strokeColor=inherit;" parent="VsHe4cQHPtOiA9iz4xQq-102" vertex="1">
          <mxGeometry y="290" width="290" height="8" as="geometry" />
        </mxCell>
        <mxCell id="VsHe4cQHPtOiA9iz4xQq-112" value="+ AddMovieToWatchList(movie: Movie): void" style="text;strokeColor=none;fillColor=none;align=left;verticalAlign=top;spacingLeft=4;spacingRight=4;overflow=hidden;rotatable=0;points=[[0,0.5],[1,0.5]];portConstraint=eastwest;whiteSpace=wrap;html=1;" parent="VsHe4cQHPtOiA9iz4xQq-102" vertex="1">
          <mxGeometry y="298" width="290" height="28" as="geometry" />
        </mxCell>
        <mxCell id="9-BU_oQjRqdLFqG4qw6S-32" value="+ UpgradeMembership(name: string, cardNum: string, securityCode: string, expiration: string): void" style="text;strokeColor=none;fillColor=none;align=left;verticalAlign=top;spacingLeft=4;spacingRight=4;overflow=hidden;rotatable=0;points=[[0,0.5],[1,0.5]];portConstraint=eastwest;whiteSpace=wrap;html=1;" parent="VsHe4cQHPtOiA9iz4xQq-102" vertex="1">
          <mxGeometry y="326" width="290" height="54" as="geometry" />
        </mxCell>
        <mxCell id="8GnqbFCGLRigF7MGzgQY-40" value="&lt;u&gt;+ Login(usesrname: string, passwd: string): User&lt;/u&gt;" style="text;strokeColor=none;fillColor=none;align=left;verticalAlign=top;spacingLeft=4;spacingRight=4;overflow=hidden;rotatable=0;points=[[0,0.5],[1,0.5]];portConstraint=eastwest;whiteSpace=wrap;html=1;" parent="VsHe4cQHPtOiA9iz4xQq-102" vertex="1">
          <mxGeometry y="380" width="290" height="30" as="geometry" />
        </mxCell>
        <mxCell id="VsHe4cQHPtOiA9iz4xQq-113" value="&lt;div&gt;Movie&lt;/div&gt;" style="swimlane;fontStyle=1;align=center;verticalAlign=top;childLayout=stackLayout;horizontal=1;startSize=26;horizontalStack=0;resizeParent=1;resizeParentMax=0;resizeLast=0;collapsible=1;marginBottom=0;whiteSpace=wrap;html=1;" parent="1" vertex="1">
          <mxGeometry x="145" y="2172" width="200" height="52" as="geometry" />
        </mxCell>
        <mxCell id="VsHe4cQHPtOiA9iz4xQq-114" value="+ Duration: int" style="text;strokeColor=none;fillColor=none;align=left;verticalAlign=top;spacingLeft=4;spacingRight=4;overflow=hidden;rotatable=0;points=[[0,0.5],[1,0.5]];portConstraint=eastwest;whiteSpace=wrap;html=1;" parent="VsHe4cQHPtOiA9iz4xQq-113" vertex="1">
          <mxGeometry y="26" width="200" height="26" as="geometry" />
        </mxCell>
        <mxCell id="VsHe4cQHPtOiA9iz4xQq-115" value="" style="edgeStyle=orthogonalEdgeStyle;rounded=0;orthogonalLoop=1;jettySize=auto;html=1;fontSize=12;startSize=8;endSize=16;endArrow=block;endFill=0;" parent="1" source="VsHe4cQHPtOiA9iz4xQq-116" target="VsHe4cQHPtOiA9iz4xQq-195" edge="1">
          <mxGeometry relative="1" as="geometry">
            <mxPoint x="95" y="1320" as="targetPoint" />
            <Array as="points">
              <mxPoint x="30" y="1440" />
              <mxPoint x="160" y="1440" />
            </Array>
          </mxGeometry>
        </mxCell>
        <mxCell id="VsHe4cQHPtOiA9iz4xQq-116" value="&lt;b&gt;Actor&lt;/b&gt;" style="swimlane;fontStyle=0;childLayout=stackLayout;horizontal=1;startSize=26;fillColor=none;horizontalStack=0;resizeParent=1;resizeParentMax=0;resizeLast=0;collapsible=1;marginBottom=0;whiteSpace=wrap;html=1;" parent="1" vertex="1">
          <mxGeometry x="-65" y="1480" width="190" height="52" as="geometry" />
        </mxCell>
        <mxCell id="VsHe4cQHPtOiA9iz4xQq-118" value="+ Starred: List&amp;lt;Media&amp;gt;" style="text;strokeColor=none;fillColor=none;align=left;verticalAlign=top;spacingLeft=4;spacingRight=4;overflow=hidden;rotatable=0;points=[[0,0.5],[1,0.5]];portConstraint=eastwest;whiteSpace=wrap;html=1;" parent="VsHe4cQHPtOiA9iz4xQq-116" vertex="1">
          <mxGeometry y="26" width="190" height="26" as="geometry" />
        </mxCell>
        <mxCell id="VsHe4cQHPtOiA9iz4xQq-119" value="&lt;b&gt;Person &amp;lt;&amp;lt;Abstract&amp;gt;&amp;gt;&lt;/b&gt;" style="swimlane;fontStyle=0;childLayout=stackLayout;horizontal=1;startSize=26;fillColor=none;horizontalStack=0;resizeParent=1;resizeParentMax=0;resizeLast=0;collapsible=1;marginBottom=0;whiteSpace=wrap;html=1;" parent="1" vertex="1">
          <mxGeometry x="60" y="1120" width="210" height="78" as="geometry" />
        </mxCell>
        <mxCell id="VsHe4cQHPtOiA9iz4xQq-120" value="+ FirstName: string" style="text;strokeColor=none;fillColor=none;align=left;verticalAlign=top;spacingLeft=4;spacingRight=4;overflow=hidden;rotatable=0;points=[[0,0.5],[1,0.5]];portConstraint=eastwest;whiteSpace=wrap;html=1;" parent="VsHe4cQHPtOiA9iz4xQq-119" vertex="1">
          <mxGeometry y="26" width="210" height="26" as="geometry" />
        </mxCell>
        <mxCell id="VsHe4cQHPtOiA9iz4xQq-121" value="+ SecondName: string" style="text;strokeColor=none;fillColor=none;align=left;verticalAlign=top;spacingLeft=4;spacingRight=4;overflow=hidden;rotatable=0;points=[[0,0.5],[1,0.5]];portConstraint=eastwest;whiteSpace=wrap;html=1;" parent="VsHe4cQHPtOiA9iz4xQq-119" vertex="1">
          <mxGeometry y="52" width="210" height="26" as="geometry" />
        </mxCell>
        <mxCell id="VsHe4cQHPtOiA9iz4xQq-122" value="&lt;div&gt;Review&lt;/div&gt;" style="swimlane;fontStyle=1;align=center;verticalAlign=top;childLayout=stackLayout;horizontal=1;startSize=26;horizontalStack=0;resizeParent=1;resizeParentMax=0;resizeLast=0;collapsible=1;marginBottom=0;whiteSpace=wrap;html=1;" parent="1" vertex="1">
          <mxGeometry x="560" y="1403" width="250" height="210" as="geometry" />
        </mxCell>
        <mxCell id="VsHe4cQHPtOiA9iz4xQq-123" value="+ ReviewID: int" style="text;strokeColor=none;fillColor=none;align=left;verticalAlign=top;spacingLeft=4;spacingRight=4;overflow=hidden;rotatable=0;points=[[0,0.5],[1,0.5]];portConstraint=eastwest;whiteSpace=wrap;html=1;" parent="VsHe4cQHPtOiA9iz4xQq-122" vertex="1">
          <mxGeometry y="26" width="250" height="26" as="geometry" />
        </mxCell>
        <mxCell id="VsHe4cQHPtOiA9iz4xQq-203" value="+ Author: User" style="text;strokeColor=none;fillColor=none;align=left;verticalAlign=top;spacingLeft=4;spacingRight=4;overflow=hidden;rotatable=0;points=[[0,0.5],[1,0.5]];portConstraint=eastwest;whiteSpace=wrap;html=1;" parent="VsHe4cQHPtOiA9iz4xQq-122" vertex="1">
          <mxGeometry y="52" width="250" height="26" as="geometry" />
        </mxCell>
        <mxCell id="VsHe4cQHPtOiA9iz4xQq-124" value="+ Comment: string" style="text;strokeColor=none;fillColor=none;align=left;verticalAlign=top;spacingLeft=4;spacingRight=4;overflow=hidden;rotatable=0;points=[[0,0.5],[1,0.5]];portConstraint=eastwest;whiteSpace=wrap;html=1;" parent="VsHe4cQHPtOiA9iz4xQq-122" vertex="1">
          <mxGeometry y="78" width="250" height="26" as="geometry" />
        </mxCell>
        <mxCell id="VsHe4cQHPtOiA9iz4xQq-125" value="+ Rating: double" style="text;strokeColor=none;fillColor=none;align=left;verticalAlign=top;spacingLeft=4;spacingRight=4;overflow=hidden;rotatable=0;points=[[0,0.5],[1,0.5]];portConstraint=eastwest;whiteSpace=wrap;html=1;" parent="VsHe4cQHPtOiA9iz4xQq-122" vertex="1">
          <mxGeometry y="104" width="250" height="26" as="geometry" />
        </mxCell>
        <mxCell id="VsHe4cQHPtOiA9iz4xQq-126" value="" style="line;strokeWidth=1;fillColor=none;align=left;verticalAlign=middle;spacingTop=-1;spacingLeft=3;spacingRight=3;rotatable=0;labelPosition=right;points=[];portConstraint=eastwest;strokeColor=inherit;" parent="VsHe4cQHPtOiA9iz4xQq-122" vertex="1">
          <mxGeometry y="130" width="250" height="8" as="geometry" />
        </mxCell>
        <mxCell id="VsHe4cQHPtOiA9iz4xQq-127" value="+ EditReviewComment(comment: string): void" style="text;strokeColor=none;fillColor=none;align=left;verticalAlign=top;spacingLeft=4;spacingRight=4;overflow=hidden;rotatable=0;points=[[0,0.5],[1,0.5]];portConstraint=eastwest;whiteSpace=wrap;html=1;" parent="VsHe4cQHPtOiA9iz4xQq-122" vertex="1">
          <mxGeometry y="138" width="250" height="42" as="geometry" />
        </mxCell>
        <mxCell id="VsHe4cQHPtOiA9iz4xQq-128" value="+ EditReviewRating(rating: double): void" style="text;strokeColor=none;fillColor=none;align=left;verticalAlign=top;spacingLeft=4;spacingRight=4;overflow=hidden;rotatable=0;points=[[0,0.5],[1,0.5]];portConstraint=eastwest;whiteSpace=wrap;html=1;" parent="VsHe4cQHPtOiA9iz4xQq-122" vertex="1">
          <mxGeometry y="180" width="250" height="30" as="geometry" />
        </mxCell>
        <mxCell id="VsHe4cQHPtOiA9iz4xQq-129" value="Director" style="swimlane;fontStyle=1;align=center;verticalAlign=top;childLayout=stackLayout;horizontal=1;startSize=26;horizontalStack=0;resizeParent=1;resizeParentMax=0;resizeLast=0;collapsible=1;marginBottom=0;whiteSpace=wrap;html=1;" parent="1" vertex="1">
          <mxGeometry x="205" y="1480" width="160" height="56" as="geometry" />
        </mxCell>
        <mxCell id="VsHe4cQHPtOiA9iz4xQq-130" value="+ Directed: List&amp;lt;Media&amp;gt;" style="text;html=1;align=center;verticalAlign=middle;whiteSpace=wrap;rounded=0;" parent="VsHe4cQHPtOiA9iz4xQq-129" vertex="1">
          <mxGeometry y="26" width="160" height="30" as="geometry" />
        </mxCell>
        <mxCell id="VsHe4cQHPtOiA9iz4xQq-131" value="Media &amp;lt;&amp;lt;Abstract&amp;gt;&amp;gt;" style="swimlane;fontStyle=1;align=center;verticalAlign=top;childLayout=stackLayout;horizontal=1;startSize=26;horizontalStack=0;resizeParent=1;resizeParentMax=0;resizeLast=0;collapsible=1;marginBottom=0;whiteSpace=wrap;html=1;" parent="1" vertex="1">
          <mxGeometry x="-95" y="1760" width="250" height="294" as="geometry" />
        </mxCell>
        <mxCell id="VsHe4cQHPtOiA9iz4xQq-132" value="+ MediaID: int" style="text;strokeColor=none;fillColor=none;align=left;verticalAlign=top;spacingLeft=4;spacingRight=4;overflow=hidden;rotatable=0;points=[[0,0.5],[1,0.5]];portConstraint=eastwest;whiteSpace=wrap;html=1;" parent="VsHe4cQHPtOiA9iz4xQq-131" vertex="1">
          <mxGeometry y="26" width="250" height="26" as="geometry" />
        </mxCell>
        <mxCell id="VsHe4cQHPtOiA9iz4xQq-133" value="+ Title: string" style="text;strokeColor=none;fillColor=none;align=left;verticalAlign=top;spacingLeft=4;spacingRight=4;overflow=hidden;rotatable=0;points=[[0,0.5],[1,0.5]];portConstraint=eastwest;whiteSpace=wrap;html=1;" parent="VsHe4cQHPtOiA9iz4xQq-131" vertex="1">
          <mxGeometry y="52" width="250" height="26" as="geometry" />
        </mxCell>
        <mxCell id="VsHe4cQHPtOiA9iz4xQq-134" value="+ ReleaseDate: Date" style="text;strokeColor=none;fillColor=none;align=left;verticalAlign=top;spacingLeft=4;spacingRight=4;overflow=hidden;rotatable=0;points=[[0,0.5],[1,0.5]];portConstraint=eastwest;whiteSpace=wrap;html=1;" parent="VsHe4cQHPtOiA9iz4xQq-131" vertex="1">
          <mxGeometry y="78" width="250" height="26" as="geometry" />
        </mxCell>
        <mxCell id="VsHe4cQHPtOiA9iz4xQq-135" value="+ Directors: List&amp;lt;Director&amp;gt;" style="text;strokeColor=none;fillColor=none;align=left;verticalAlign=top;spacingLeft=4;spacingRight=4;overflow=hidden;rotatable=0;points=[[0,0.5],[1,0.5]];portConstraint=eastwest;whiteSpace=wrap;html=1;" parent="VsHe4cQHPtOiA9iz4xQq-131" vertex="1">
          <mxGeometry y="104" width="250" height="26" as="geometry" />
        </mxCell>
        <mxCell id="VsHe4cQHPtOiA9iz4xQq-136" value="+ Actors: List&amp;lt;Actor&amp;gt;" style="text;strokeColor=none;fillColor=none;align=left;verticalAlign=top;spacingLeft=4;spacingRight=4;overflow=hidden;rotatable=0;points=[[0,0.5],[1,0.5]];portConstraint=eastwest;whiteSpace=wrap;html=1;" parent="VsHe4cQHPtOiA9iz4xQq-131" vertex="1">
          <mxGeometry y="130" width="250" height="26" as="geometry" />
        </mxCell>
        <mxCell id="VsHe4cQHPtOiA9iz4xQq-137" value="&amp;nbsp;&lt;span style=&quot;color: rgb(0, 0, 0); font-family: Helvetica; font-size: 12px; font-style: normal; font-variant-ligatures: normal; font-variant-caps: normal; font-weight: 400; letter-spacing: normal; orphans: 2; text-align: left; text-indent: 0px; text-transform: none; widows: 2; word-spacing: 0px; -webkit-text-stroke-width: 0px; white-space: normal; background-color: rgb(251, 251, 251); text-decoration-thickness: initial; text-decoration-style: initial; text-decoration-color: initial; display: inline !important; float: none;&quot;&gt;+ Genre: Genre[]&lt;/span&gt;" style="text;whiteSpace=wrap;html=1;" parent="VsHe4cQHPtOiA9iz4xQq-131" vertex="1">
          <mxGeometry y="156" width="250" height="26" as="geometry" />
        </mxCell>
        <mxCell id="VsHe4cQHPtOiA9iz4xQq-138" value="+ Reviews: List&amp;lt;Review&amp;gt;" style="text;strokeColor=none;fillColor=none;align=left;verticalAlign=top;spacingLeft=4;spacingRight=4;overflow=hidden;rotatable=0;points=[[0,0.5],[1,0.5]];portConstraint=eastwest;whiteSpace=wrap;html=1;" parent="VsHe4cQHPtOiA9iz4xQq-131" vertex="1">
          <mxGeometry y="182" width="250" height="26" as="geometry" />
        </mxCell>
        <mxCell id="VsHe4cQHPtOiA9iz4xQq-140" value="+ Synopsis: string" style="text;strokeColor=none;fillColor=none;align=left;verticalAlign=top;spacingLeft=4;spacingRight=4;overflow=hidden;rotatable=0;points=[[0,0.5],[1,0.5]];portConstraint=eastwest;whiteSpace=wrap;html=1;" parent="VsHe4cQHPtOiA9iz4xQq-131" vertex="1">
          <mxGeometry y="208" width="250" height="26" as="geometry" />
        </mxCell>
        <mxCell id="VsHe4cQHPtOiA9iz4xQq-141" value="" style="line;strokeWidth=1;fillColor=none;align=left;verticalAlign=middle;spacingTop=-1;spacingLeft=3;spacingRight=3;rotatable=0;labelPosition=right;points=[];portConstraint=eastwest;strokeColor=inherit;" parent="VsHe4cQHPtOiA9iz4xQq-131" vertex="1">
          <mxGeometry y="234" width="250" height="8" as="geometry" />
        </mxCell>
        <mxCell id="VsHe4cQHPtOiA9iz4xQq-142" value="+ AddReview(review: Review): void" style="text;strokeColor=none;fillColor=none;align=left;verticalAlign=top;spacingLeft=4;spacingRight=4;overflow=hidden;rotatable=0;points=[[0,0.5],[1,0.5]];portConstraint=eastwest;whiteSpace=wrap;html=1;" parent="VsHe4cQHPtOiA9iz4xQq-131" vertex="1">
          <mxGeometry y="242" width="250" height="26" as="geometry" />
        </mxCell>
        <mxCell id="VsHe4cQHPtOiA9iz4xQq-143" value="+ GetMediaRating(): double" style="text;strokeColor=none;fillColor=none;align=left;verticalAlign=top;spacingLeft=4;spacingRight=4;overflow=hidden;rotatable=0;points=[[0,0.5],[1,0.5]];portConstraint=eastwest;whiteSpace=wrap;html=1;" parent="VsHe4cQHPtOiA9iz4xQq-131" vertex="1">
          <mxGeometry y="268" width="250" height="26" as="geometry" />
        </mxCell>
        <mxCell id="VsHe4cQHPtOiA9iz4xQq-144" value="&lt;b&gt;Genre &amp;lt;&amp;lt;Enumeration&amp;gt;&amp;gt;&lt;/b&gt;" style="swimlane;fontStyle=0;childLayout=stackLayout;horizontal=1;startSize=26;fillColor=none;horizontalStack=0;resizeParent=1;resizeParentMax=0;resizeLast=0;collapsible=1;marginBottom=0;whiteSpace=wrap;html=1;" parent="1" vertex="1">
          <mxGeometry x="255" y="1740" width="140" height="408" as="geometry" />
        </mxCell>
        <mxCell id="VsHe4cQHPtOiA9iz4xQq-145" value="ACTION" style="text;strokeColor=none;fillColor=none;align=left;verticalAlign=top;spacingLeft=4;spacingRight=4;overflow=hidden;rotatable=0;points=[[0,0.5],[1,0.5]];portConstraint=eastwest;whiteSpace=wrap;html=1;" parent="VsHe4cQHPtOiA9iz4xQq-144" vertex="1">
          <mxGeometry y="26" width="140" height="26" as="geometry" />
        </mxCell>
        <mxCell id="VsHe4cQHPtOiA9iz4xQq-146" value="COMEDY" style="text;strokeColor=none;fillColor=none;align=left;verticalAlign=top;spacingLeft=4;spacingRight=4;overflow=hidden;rotatable=0;points=[[0,0.5],[1,0.5]];portConstraint=eastwest;whiteSpace=wrap;html=1;" parent="VsHe4cQHPtOiA9iz4xQq-144" vertex="1">
          <mxGeometry y="52" width="140" height="26" as="geometry" />
        </mxCell>
        <mxCell id="VsHe4cQHPtOiA9iz4xQq-147" value="MYSTERY" style="text;strokeColor=none;fillColor=none;align=left;verticalAlign=top;spacingLeft=4;spacingRight=4;overflow=hidden;rotatable=0;points=[[0,0.5],[1,0.5]];portConstraint=eastwest;whiteSpace=wrap;html=1;" parent="VsHe4cQHPtOiA9iz4xQq-144" vertex="1">
          <mxGeometry y="78" width="140" height="26" as="geometry" />
        </mxCell>
        <mxCell id="VsHe4cQHPtOiA9iz4xQq-148" value="HORROR" style="text;strokeColor=none;fillColor=none;align=left;verticalAlign=top;spacingLeft=4;spacingRight=4;overflow=hidden;rotatable=0;points=[[0,0.5],[1,0.5]];portConstraint=eastwest;whiteSpace=wrap;html=1;" parent="VsHe4cQHPtOiA9iz4xQq-144" vertex="1">
          <mxGeometry y="104" width="140" height="26" as="geometry" />
        </mxCell>
        <mxCell id="VsHe4cQHPtOiA9iz4xQq-149" value="SCI-FI" style="text;strokeColor=none;fillColor=none;align=left;verticalAlign=top;spacingLeft=4;spacingRight=4;overflow=hidden;rotatable=0;points=[[0,0.5],[1,0.5]];portConstraint=eastwest;whiteSpace=wrap;html=1;" parent="VsHe4cQHPtOiA9iz4xQq-144" vertex="1">
          <mxGeometry y="130" width="140" height="26" as="geometry" />
        </mxCell>
        <mxCell id="VsHe4cQHPtOiA9iz4xQq-150" value="ROMANCE" style="text;strokeColor=none;fillColor=none;align=left;verticalAlign=top;spacingLeft=4;spacingRight=4;overflow=hidden;rotatable=0;points=[[0,0.5],[1,0.5]];portConstraint=eastwest;whiteSpace=wrap;html=1;" parent="VsHe4cQHPtOiA9iz4xQq-144" vertex="1">
          <mxGeometry y="156" width="140" height="26" as="geometry" />
        </mxCell>
        <mxCell id="VsHe4cQHPtOiA9iz4xQq-151" value="THRILLER" style="text;strokeColor=none;fillColor=none;align=left;verticalAlign=top;spacingLeft=4;spacingRight=4;overflow=hidden;rotatable=0;points=[[0,0.5],[1,0.5]];portConstraint=eastwest;whiteSpace=wrap;html=1;" parent="VsHe4cQHPtOiA9iz4xQq-144" vertex="1">
          <mxGeometry y="182" width="140" height="26" as="geometry" />
        </mxCell>
        <mxCell id="VsHe4cQHPtOiA9iz4xQq-152" value="DRAMA" style="text;strokeColor=none;fillColor=none;align=left;verticalAlign=top;spacingLeft=4;spacingRight=4;overflow=hidden;rotatable=0;points=[[0,0.5],[1,0.5]];portConstraint=eastwest;whiteSpace=wrap;html=1;" parent="VsHe4cQHPtOiA9iz4xQq-144" vertex="1">
          <mxGeometry y="208" width="140" height="26" as="geometry" />
        </mxCell>
        <mxCell id="VsHe4cQHPtOiA9iz4xQq-153" value="MUSICAL" style="text;strokeColor=none;fillColor=none;align=left;verticalAlign=top;spacingLeft=4;spacingRight=4;overflow=hidden;rotatable=0;points=[[0,0.5],[1,0.5]];portConstraint=eastwest;whiteSpace=wrap;html=1;" parent="VsHe4cQHPtOiA9iz4xQq-144" vertex="1">
          <mxGeometry y="234" width="140" height="26" as="geometry" />
        </mxCell>
        <mxCell id="VsHe4cQHPtOiA9iz4xQq-154" value="WAR" style="text;strokeColor=none;fillColor=none;align=left;verticalAlign=top;spacingLeft=4;spacingRight=4;overflow=hidden;rotatable=0;points=[[0,0.5],[1,0.5]];portConstraint=eastwest;whiteSpace=wrap;html=1;" parent="VsHe4cQHPtOiA9iz4xQq-144" vertex="1">
          <mxGeometry y="260" width="140" height="26" as="geometry" />
        </mxCell>
        <mxCell id="VsHe4cQHPtOiA9iz4xQq-155" value="SUPERHERO" style="text;strokeColor=none;fillColor=none;align=left;verticalAlign=top;spacingLeft=4;spacingRight=4;overflow=hidden;rotatable=0;points=[[0,0.5],[1,0.5]];portConstraint=eastwest;whiteSpace=wrap;html=1;" parent="VsHe4cQHPtOiA9iz4xQq-144" vertex="1">
          <mxGeometry y="286" width="140" height="26" as="geometry" />
        </mxCell>
        <mxCell id="VsHe4cQHPtOiA9iz4xQq-156" value="ANIMATION" style="text;strokeColor=none;fillColor=none;align=left;verticalAlign=top;spacingLeft=4;spacingRight=4;overflow=hidden;rotatable=0;points=[[0,0.5],[1,0.5]];portConstraint=eastwest;whiteSpace=wrap;html=1;" parent="VsHe4cQHPtOiA9iz4xQq-144" vertex="1">
          <mxGeometry y="312" width="140" height="26" as="geometry" />
        </mxCell>
        <mxCell id="VsHe4cQHPtOiA9iz4xQq-157" value="&lt;span style=&quot;color: rgb(0, 0, 0); font-family: Helvetica; font-size: 12px; font-style: normal; font-variant-ligatures: normal; font-variant-caps: normal; font-weight: 400; letter-spacing: normal; orphans: 2; text-align: left; text-indent: 0px; text-transform: none; widows: 2; word-spacing: 0px; -webkit-text-stroke-width: 0px; white-space: normal; background-color: rgb(251, 251, 251); text-decoration-thickness: initial; text-decoration-style: initial; text-decoration-color: initial; display: inline !important; float: none;&quot;&gt;DOCUMENTARY&lt;/span&gt;" style="text;whiteSpace=wrap;html=1;" parent="VsHe4cQHPtOiA9iz4xQq-144" vertex="1">
          <mxGeometry y="338" width="140" height="22" as="geometry" />
        </mxCell>
        <mxCell id="VsHe4cQHPtOiA9iz4xQq-158" value="&lt;span style=&quot;color: rgb(0, 0, 0); font-family: Helvetica; font-size: 12px; font-style: normal; font-variant-ligatures: normal; font-variant-caps: normal; font-weight: 400; letter-spacing: normal; orphans: 2; text-align: left; text-indent: 0px; text-transform: none; widows: 2; word-spacing: 0px; -webkit-text-stroke-width: 0px; white-space: normal; background-color: rgb(251, 251, 251); text-decoration-thickness: initial; text-decoration-style: initial; text-decoration-color: initial; display: inline !important; float: none;&quot;&gt;CRIME&lt;/span&gt;" style="text;whiteSpace=wrap;html=1;" parent="VsHe4cQHPtOiA9iz4xQq-144" vertex="1">
          <mxGeometry y="360" width="140" height="22" as="geometry" />
        </mxCell>
        <mxCell id="VsHe4cQHPtOiA9iz4xQq-159" value="FANTASY" style="text;strokeColor=none;fillColor=none;align=left;verticalAlign=top;spacingLeft=4;spacingRight=4;overflow=hidden;rotatable=0;points=[[0,0.5],[1,0.5]];portConstraint=eastwest;whiteSpace=wrap;html=1;" parent="VsHe4cQHPtOiA9iz4xQq-144" vertex="1">
          <mxGeometry y="382" width="140" height="26" as="geometry" />
        </mxCell>
        <mxCell id="VsHe4cQHPtOiA9iz4xQq-160" value="TVShow" style="swimlane;fontStyle=1;align=center;verticalAlign=top;childLayout=stackLayout;horizontal=1;startSize=26;horizontalStack=0;resizeParent=1;resizeParentMax=0;resizeLast=0;collapsible=1;marginBottom=0;whiteSpace=wrap;html=1;" parent="1" vertex="1">
          <mxGeometry x="-395" y="2161" width="230" height="198" as="geometry" />
        </mxCell>
        <mxCell id="VsHe4cQHPtOiA9iz4xQq-161" value="+ Episodes: List&amp;lt;Episode&amp;gt;" style="text;strokeColor=none;fillColor=none;align=left;verticalAlign=top;spacingLeft=4;spacingRight=4;overflow=hidden;rotatable=0;points=[[0,0.5],[1,0.5]];portConstraint=eastwest;whiteSpace=wrap;html=1;" parent="VsHe4cQHPtOiA9iz4xQq-160" vertex="1">
          <mxGeometry y="26" width="230" height="26" as="geometry" />
        </mxCell>
        <mxCell id="VsHe4cQHPtOiA9iz4xQq-162" value="" style="line;strokeWidth=1;fillColor=none;align=left;verticalAlign=middle;spacingTop=-1;spacingLeft=3;spacingRight=3;rotatable=0;labelPosition=right;points=[];portConstraint=eastwest;strokeColor=inherit;" parent="VsHe4cQHPtOiA9iz4xQq-160" vertex="1">
          <mxGeometry y="52" width="230" height="8" as="geometry" />
        </mxCell>
        <mxCell id="VsHe4cQHPtOiA9iz4xQq-163" value="+ GetNumberOfSeasons(): int" style="text;strokeColor=none;fillColor=none;align=left;verticalAlign=top;spacingLeft=4;spacingRight=4;overflow=hidden;rotatable=0;points=[[0,0.5],[1,0.5]];portConstraint=eastwest;whiteSpace=wrap;html=1;" parent="VsHe4cQHPtOiA9iz4xQq-160" vertex="1">
          <mxGeometry y="60" width="230" height="26" as="geometry" />
        </mxCell>
        <mxCell id="VsHe4cQHPtOiA9iz4xQq-164" value="+ GetNumberOfEpisodes(): int" style="text;strokeColor=none;fillColor=none;align=left;verticalAlign=top;spacingLeft=4;spacingRight=4;overflow=hidden;rotatable=0;points=[[0,0.5],[1,0.5]];portConstraint=eastwest;whiteSpace=wrap;html=1;" parent="VsHe4cQHPtOiA9iz4xQq-160" vertex="1">
          <mxGeometry y="86" width="230" height="26" as="geometry" />
        </mxCell>
        <mxCell id="VsHe4cQHPtOiA9iz4xQq-165" value="+ GetNumberOfEpisodes(int season): int" style="text;strokeColor=none;fillColor=none;align=left;verticalAlign=top;spacingLeft=4;spacingRight=4;overflow=hidden;rotatable=0;points=[[0,0.5],[1,0.5]];portConstraint=eastwest;whiteSpace=wrap;html=1;" parent="VsHe4cQHPtOiA9iz4xQq-160" vertex="1">
          <mxGeometry y="112" width="230" height="18" as="geometry" />
        </mxCell>
        <mxCell id="VsHe4cQHPtOiA9iz4xQq-166" value="+ GetEpisode(season: int, episode: int): Episode" style="text;strokeColor=none;fillColor=none;align=left;verticalAlign=top;spacingLeft=4;spacingRight=4;overflow=hidden;rotatable=0;points=[[0,0.5],[1,0.5]];portConstraint=eastwest;whiteSpace=wrap;html=1;" parent="VsHe4cQHPtOiA9iz4xQq-160" vertex="1">
          <mxGeometry y="130" width="230" height="30" as="geometry" />
        </mxCell>
        <mxCell id="VsHe4cQHPtOiA9iz4xQq-167" value="+ AddEpisode(season: int, episode: Episode): void" style="text;strokeColor=none;fillColor=none;align=left;verticalAlign=top;spacingLeft=4;spacingRight=4;overflow=hidden;rotatable=0;points=[[0,0.5],[1,0.5]];portConstraint=eastwest;whiteSpace=wrap;html=1;" parent="VsHe4cQHPtOiA9iz4xQq-160" vertex="1">
          <mxGeometry y="160" width="230" height="38" as="geometry" />
        </mxCell>
        <mxCell id="VsHe4cQHPtOiA9iz4xQq-168" value="" style="edgeStyle=none;curved=1;rounded=0;orthogonalLoop=1;jettySize=auto;html=1;fontSize=12;startSize=8;endSize=16;endArrow=block;endFill=0;" parent="1" source="VsHe4cQHPtOiA9iz4xQq-169" target="VsHe4cQHPtOiA9iz4xQq-143" edge="1">
          <mxGeometry relative="1" as="geometry" />
        </mxCell>
        <mxCell id="VsHe4cQHPtOiA9iz4xQq-169" value="Episode" style="swimlane;fontStyle=1;align=center;verticalAlign=top;childLayout=stackLayout;horizontal=1;startSize=26;horizontalStack=0;resizeParent=1;resizeParentMax=0;resizeLast=0;collapsible=1;marginBottom=0;whiteSpace=wrap;html=1;" parent="1" vertex="1">
          <mxGeometry x="-50" y="2172" width="160" height="104" as="geometry" />
        </mxCell>
        <mxCell id="VsHe4cQHPtOiA9iz4xQq-170" value="+ Duration: int" style="text;strokeColor=none;fillColor=none;align=left;verticalAlign=top;spacingLeft=4;spacingRight=4;overflow=hidden;rotatable=0;points=[[0,0.5],[1,0.5]];portConstraint=eastwest;whiteSpace=wrap;html=1;" parent="VsHe4cQHPtOiA9iz4xQq-169" vertex="1">
          <mxGeometry y="26" width="160" height="26" as="geometry" />
        </mxCell>
        <mxCell id="9-BU_oQjRqdLFqG4qw6S-36" value="+ SeasonNumber: int" style="text;strokeColor=none;fillColor=none;align=left;verticalAlign=top;spacingLeft=4;spacingRight=4;overflow=hidden;rotatable=0;points=[[0,0.5],[1,0.5]];portConstraint=eastwest;whiteSpace=wrap;html=1;" parent="VsHe4cQHPtOiA9iz4xQq-169" vertex="1">
          <mxGeometry y="52" width="160" height="26" as="geometry" />
        </mxCell>
        <mxCell id="9-BU_oQjRqdLFqG4qw6S-37" value="+ EpisodeNumber: int" style="text;strokeColor=none;fillColor=none;align=left;verticalAlign=top;spacingLeft=4;spacingRight=4;overflow=hidden;rotatable=0;points=[[0,0.5],[1,0.5]];portConstraint=eastwest;whiteSpace=wrap;html=1;" parent="VsHe4cQHPtOiA9iz4xQq-169" vertex="1">
          <mxGeometry y="78" width="160" height="26" as="geometry" />
        </mxCell>
        <mxCell id="VsHe4cQHPtOiA9iz4xQq-171" value="" style="endArrow=none;html=1;rounded=0;fontSize=12;startSize=8;endSize=8;curved=1;" parent="1" edge="1">
          <mxGeometry width="50" height="50" relative="1" as="geometry">
            <mxPoint x="-205" y="2142" as="sourcePoint" />
            <mxPoint x="245" y="2142" as="targetPoint" />
          </mxGeometry>
        </mxCell>
        <mxCell id="VsHe4cQHPtOiA9iz4xQq-172" value="" style="endArrow=diamondThin;endFill=0;endSize=24;html=1;rounded=0;edgeStyle=orthogonalEdgeStyle;" parent="1" source="VsHe4cQHPtOiA9iz4xQq-144" target="VsHe4cQHPtOiA9iz4xQq-131" edge="1">
          <mxGeometry width="160" relative="1" as="geometry">
            <mxPoint x="385" y="2203.0588235294117" as="sourcePoint" />
            <mxPoint x="525" y="2150" as="targetPoint" />
            <Array as="points">
              <mxPoint x="215" y="1957" />
              <mxPoint x="215" y="1957" />
            </Array>
          </mxGeometry>
        </mxCell>
        <mxCell id="VsHe4cQHPtOiA9iz4xQq-173" value="" style="endArrow=none;html=1;rounded=0;fontSize=12;startSize=8;endSize=8;curved=1;entryX=0.5;entryY=0;entryDx=0;entryDy=0;" parent="1" target="VsHe4cQHPtOiA9iz4xQq-113" edge="1">
          <mxGeometry width="50" height="50" relative="1" as="geometry">
            <mxPoint x="245" y="2142" as="sourcePoint" />
            <mxPoint x="355" y="2092" as="targetPoint" />
          </mxGeometry>
        </mxCell>
        <mxCell id="VsHe4cQHPtOiA9iz4xQq-174" value="" style="endArrow=none;html=1;rounded=0;fontSize=12;startSize=8;endSize=8;curved=1;exitX=0.5;exitY=0;exitDx=0;exitDy=0;" parent="1" edge="1">
          <mxGeometry width="50" height="50" relative="1" as="geometry">
            <mxPoint x="-205.04999999999995" y="2161" as="sourcePoint" />
            <mxPoint x="-205.04999999999995" y="2142" as="targetPoint" />
          </mxGeometry>
        </mxCell>
        <mxCell id="VsHe4cQHPtOiA9iz4xQq-175" value="" style="endArrow=diamondThin;endFill=0;endSize=24;html=1;rounded=0;edgeStyle=orthogonalEdgeStyle;" parent="1" source="VsHe4cQHPtOiA9iz4xQq-131" target="VsHe4cQHPtOiA9iz4xQq-102" edge="1">
          <mxGeometry width="160" relative="1" as="geometry">
            <mxPoint x="-315" y="1770" as="sourcePoint" />
            <mxPoint x="285" y="1800" as="targetPoint" />
          </mxGeometry>
        </mxCell>
        <mxCell id="VsHe4cQHPtOiA9iz4xQq-176" value="[0, n]" style="edgeLabel;html=1;align=center;verticalAlign=middle;resizable=0;points=[];" parent="VsHe4cQHPtOiA9iz4xQq-175" connectable="0" vertex="1">
          <mxGeometry x="0.7909" y="3" relative="1" as="geometry">
            <mxPoint x="28" y="-37" as="offset" />
          </mxGeometry>
        </mxCell>
        <mxCell id="VsHe4cQHPtOiA9iz4xQq-177" value="[0, n]" style="edgeLabel;html=1;align=center;verticalAlign=middle;resizable=0;points=[];" parent="VsHe4cQHPtOiA9iz4xQq-175" connectable="0" vertex="1">
          <mxGeometry x="-0.6298" y="-2" relative="1" as="geometry">
            <mxPoint x="42" y="22" as="offset" />
          </mxGeometry>
        </mxCell>
        <mxCell id="VsHe4cQHPtOiA9iz4xQq-178" value="can be watchlisted by" style="edgeLabel;html=1;align=center;verticalAlign=middle;resizable=0;points=[];" parent="VsHe4cQHPtOiA9iz4xQq-175" connectable="0" vertex="1">
          <mxGeometry x="0.7009" y="-4" relative="1" as="geometry">
            <mxPoint x="56" y="-30" as="offset" />
          </mxGeometry>
        </mxCell>
        <mxCell id="VsHe4cQHPtOiA9iz4xQq-179" value="can wish to watch" style="edgeLabel;html=1;align=center;verticalAlign=middle;resizable=0;points=[];" parent="VsHe4cQHPtOiA9iz4xQq-175" connectable="0" vertex="1">
          <mxGeometry x="-0.5784" y="-2" relative="1" as="geometry">
            <mxPoint x="32" y="-18" as="offset" />
          </mxGeometry>
        </mxCell>
        <mxCell id="VsHe4cQHPtOiA9iz4xQq-180" value="" style="endArrow=diamondThin;endFill=1;endSize=24;html=1;rounded=0;edgeStyle=orthogonalEdgeStyle;" parent="1" source="VsHe4cQHPtOiA9iz4xQq-122" target="VsHe4cQHPtOiA9iz4xQq-102" edge="1">
          <mxGeometry width="160" relative="1" as="geometry">
            <mxPoint x="-65" y="1730" as="sourcePoint" />
            <mxPoint x="650" y="1730" as="targetPoint" />
            <Array as="points">
              <mxPoint x="235" y="1610" />
              <mxPoint x="235" y="1610" />
            </Array>
          </mxGeometry>
        </mxCell>
        <mxCell id="VsHe4cQHPtOiA9iz4xQq-181" value="[1]" style="edgeLabel;html=1;align=center;verticalAlign=middle;resizable=0;points=[];" parent="VsHe4cQHPtOiA9iz4xQq-180" connectable="0" vertex="1">
          <mxGeometry x="0.8718" y="1" relative="1" as="geometry">
            <mxPoint x="-11" y="-19" as="offset" />
          </mxGeometry>
        </mxCell>
        <mxCell id="VsHe4cQHPtOiA9iz4xQq-182" value="[0, n]" style="edgeLabel;html=1;align=center;verticalAlign=middle;resizable=0;points=[];" parent="VsHe4cQHPtOiA9iz4xQq-180" connectable="0" vertex="1">
          <mxGeometry x="-0.846" relative="1" as="geometry">
            <mxPoint x="32" y="20" as="offset" />
          </mxGeometry>
        </mxCell>
        <mxCell id="VsHe4cQHPtOiA9iz4xQq-183" value="is written by" style="edgeLabel;html=1;align=center;verticalAlign=middle;resizable=0;points=[];" parent="VsHe4cQHPtOiA9iz4xQq-180" connectable="0" vertex="1">
          <mxGeometry x="0.703" y="-1" relative="1" as="geometry">
            <mxPoint x="-69" y="31" as="offset" />
          </mxGeometry>
        </mxCell>
        <mxCell id="VsHe4cQHPtOiA9iz4xQq-184" value="is the author of" style="edgeLabel;html=1;align=center;verticalAlign=middle;resizable=0;points=[];" parent="VsHe4cQHPtOiA9iz4xQq-180" connectable="0" vertex="1">
          <mxGeometry x="-0.7624" y="-1" relative="1" as="geometry">
            <mxPoint x="40" y="-19" as="offset" />
          </mxGeometry>
        </mxCell>
        <mxCell id="VsHe4cQHPtOiA9iz4xQq-185" value="" style="endArrow=diamondThin;endFill=1;endSize=24;html=1;rounded=0;edgeStyle=orthogonalEdgeStyle;" parent="1" source="VsHe4cQHPtOiA9iz4xQq-122" target="VsHe4cQHPtOiA9iz4xQq-131" edge="1">
          <mxGeometry width="160" relative="1" as="geometry">
            <mxPoint x="155" y="1650" as="sourcePoint" />
            <mxPoint x="315" y="1650" as="targetPoint" />
            <Array as="points">
              <mxPoint x="700" y="1700" />
              <mxPoint x="35" y="1700" />
            </Array>
          </mxGeometry>
        </mxCell>
        <mxCell id="VsHe4cQHPtOiA9iz4xQq-186" value="[1]" style="edgeLabel;html=1;align=center;verticalAlign=middle;resizable=0;points=[];" parent="VsHe4cQHPtOiA9iz4xQq-185" connectable="0" vertex="1">
          <mxGeometry x="0.7472" y="-1" relative="1" as="geometry">
            <mxPoint x="-58" y="21" as="offset" />
          </mxGeometry>
        </mxCell>
        <mxCell id="VsHe4cQHPtOiA9iz4xQq-187" value="[0, n]" style="edgeLabel;html=1;align=center;verticalAlign=middle;resizable=0;points=[];" parent="VsHe4cQHPtOiA9iz4xQq-185" connectable="0" vertex="1">
          <mxGeometry x="-0.3123" y="1" relative="1" as="geometry">
            <mxPoint x="222" y="-71" as="offset" />
          </mxGeometry>
        </mxCell>
        <mxCell id="VsHe4cQHPtOiA9iz4xQq-188" value="is rated by" style="edgeLabel;html=1;align=center;verticalAlign=middle;resizable=0;points=[];" parent="VsHe4cQHPtOiA9iz4xQq-185" connectable="0" vertex="1">
          <mxGeometry x="-0.6134" relative="1" as="geometry">
            <mxPoint x="30" y="-70" as="offset" />
          </mxGeometry>
        </mxCell>
        <mxCell id="VsHe4cQHPtOiA9iz4xQq-189" value="reviews" style="edgeLabel;html=1;align=center;verticalAlign=middle;resizable=0;points=[];" parent="VsHe4cQHPtOiA9iz4xQq-185" connectable="0" vertex="1">
          <mxGeometry x="0.7249" y="2" relative="1" as="geometry">
            <mxPoint x="-27" y="18" as="offset" />
          </mxGeometry>
        </mxCell>
        <mxCell id="VsHe4cQHPtOiA9iz4xQq-190" value="" style="endArrow=diamondThin;endFill=1;endSize=24;html=1;rounded=0;edgeStyle=orthogonalEdgeStyle;" parent="1" source="VsHe4cQHPtOiA9iz4xQq-169" target="VsHe4cQHPtOiA9iz4xQq-160" edge="1">
          <mxGeometry width="160" relative="1" as="geometry">
            <mxPoint x="135" y="2100" as="sourcePoint" />
            <mxPoint x="295" y="2100" as="targetPoint" />
            <Array as="points">
              <mxPoint x="-115" y="2198" />
              <mxPoint x="-115" y="2198" />
            </Array>
          </mxGeometry>
        </mxCell>
        <mxCell id="VsHe4cQHPtOiA9iz4xQq-191" value="[1]" style="edgeLabel;html=1;align=center;verticalAlign=middle;resizable=0;points=[];" parent="VsHe4cQHPtOiA9iz4xQq-190" connectable="0" vertex="1">
          <mxGeometry x="-0.0118" y="-1" relative="1" as="geometry">
            <mxPoint x="-48" y="23" as="offset" />
          </mxGeometry>
        </mxCell>
        <mxCell id="VsHe4cQHPtOiA9iz4xQq-192" value="[1, n]" style="edgeLabel;html=1;align=center;verticalAlign=middle;resizable=0;points=[];" parent="VsHe4cQHPtOiA9iz4xQq-190" connectable="0" vertex="1">
          <mxGeometry x="-0.3882" y="3" relative="1" as="geometry">
            <mxPoint x="11" y="-21" as="offset" />
          </mxGeometry>
        </mxCell>
        <mxCell id="VsHe4cQHPtOiA9iz4xQq-193" value="belongs to" style="edgeLabel;html=1;align=center;verticalAlign=middle;resizable=0;points=[];" parent="VsHe4cQHPtOiA9iz4xQq-190" connectable="0" vertex="1">
          <mxGeometry x="0.113" y="2" relative="1" as="geometry">
            <mxPoint x="-21" y="-20" as="offset" />
          </mxGeometry>
        </mxCell>
        <mxCell id="VsHe4cQHPtOiA9iz4xQq-194" value="is made up of" style="edgeLabel;html=1;align=center;verticalAlign=middle;resizable=0;points=[];" parent="VsHe4cQHPtOiA9iz4xQq-190" connectable="0" vertex="1">
          <mxGeometry x="-0.1652" y="1" relative="1" as="geometry">
            <mxPoint x="3" y="21" as="offset" />
          </mxGeometry>
        </mxCell>
        <mxCell id="VsHe4cQHPtOiA9iz4xQq-195" value="&lt;b&gt;CrewMember &amp;lt;&amp;lt;Abstract&amp;gt;&amp;gt;&lt;br&gt;&lt;/b&gt;" style="swimlane;fontStyle=0;childLayout=stackLayout;horizontal=1;startSize=26;fillColor=none;horizontalStack=0;resizeParent=1;resizeParentMax=0;resizeLast=0;collapsible=1;marginBottom=0;whiteSpace=wrap;html=1;" parent="1" vertex="1">
          <mxGeometry x="80" y="1280" width="170" height="86" as="geometry" />
        </mxCell>
        <mxCell id="9-BU_oQjRqdLFqG4qw6S-16" value="+ Reviews: List&amp;lt;Review&amp;gt;" style="text;strokeColor=none;fillColor=none;align=left;verticalAlign=top;spacingLeft=4;spacingRight=4;overflow=hidden;rotatable=0;points=[[0,0.5],[1,0.5]];portConstraint=eastwest;whiteSpace=wrap;html=1;" parent="VsHe4cQHPtOiA9iz4xQq-195" vertex="1">
          <mxGeometry y="26" width="170" height="26" as="geometry" />
        </mxCell>
        <mxCell id="SpjCkxhJOm-r6rjnh-TN-1" value="" style="line;strokeWidth=1;fillColor=none;align=left;verticalAlign=middle;spacingTop=-1;spacingLeft=3;spacingRight=3;rotatable=0;labelPosition=right;points=[];portConstraint=eastwest;strokeColor=inherit;" parent="VsHe4cQHPtOiA9iz4xQq-195" vertex="1">
          <mxGeometry y="52" width="170" height="8" as="geometry" />
        </mxCell>
        <mxCell id="SpjCkxhJOm-r6rjnh-TN-2" value="+ getPopularity(): double" style="text;strokeColor=none;fillColor=none;align=left;verticalAlign=top;spacingLeft=4;spacingRight=4;overflow=hidden;rotatable=0;points=[[0,0.5],[1,0.5]];portConstraint=eastwest;whiteSpace=wrap;html=1;" parent="VsHe4cQHPtOiA9iz4xQq-195" vertex="1">
          <mxGeometry y="60" width="170" height="26" as="geometry" />
        </mxCell>
        <mxCell id="VsHe4cQHPtOiA9iz4xQq-199" value="Util" style="swimlane;fontStyle=1;align=center;verticalAlign=top;childLayout=stackLayout;horizontal=1;startSize=26;horizontalStack=0;resizeParent=1;resizeParentMax=0;resizeLast=0;collapsible=1;marginBottom=0;whiteSpace=wrap;html=1;" parent="1" vertex="1">
          <mxGeometry x="-490" y="1130" width="320" height="176" as="geometry" />
        </mxCell>
        <mxCell id="8GnqbFCGLRigF7MGzgQY-45" value="&lt;span style=&quot;&quot;&gt;&lt;u&gt;+ ValidateCreditCard(num: int): bool&lt;/u&gt;&lt;/span&gt;" style="text;html=1;align=left;verticalAlign=middle;whiteSpace=wrap;rounded=0;" parent="VsHe4cQHPtOiA9iz4xQq-199" vertex="1">
          <mxGeometry y="26" width="320" height="24" as="geometry" />
        </mxCell>
        <mxCell id="VsHe4cQHPtOiA9iz4xQq-200" value="&amp;nbsp;&lt;u&gt;+ ToPascalCase(str: string): string&lt;/u&gt;" style="text;html=1;align=left;verticalAlign=middle;whiteSpace=wrap;rounded=0;strokeColor=none;" parent="VsHe4cQHPtOiA9iz4xQq-199" vertex="1">
          <mxGeometry y="50" width="320" height="22" as="geometry" />
        </mxCell>
        <mxCell id="9-BU_oQjRqdLFqG4qw6S-2" value="&lt;u&gt;+ ValidateNameFormat(name: string): bool&lt;/u&gt;" style="text;strokeColor=none;fillColor=none;align=left;verticalAlign=top;spacingLeft=4;spacingRight=4;overflow=hidden;rotatable=0;points=[[0,0.5],[1,0.5]];portConstraint=eastwest;whiteSpace=wrap;html=1;" parent="VsHe4cQHPtOiA9iz4xQq-199" vertex="1">
          <mxGeometry y="72" width="320" height="26" as="geometry" />
        </mxCell>
        <mxCell id="9-BU_oQjRqdLFqG4qw6S-3" value="&lt;u&gt;+ ValidateUsernameFormat(username: string): bool&lt;br&gt;&lt;/u&gt;" style="text;strokeColor=none;fillColor=none;align=left;verticalAlign=top;spacingLeft=4;spacingRight=4;overflow=hidden;rotatable=0;points=[[0,0.5],[1,0.5]];portConstraint=eastwest;whiteSpace=wrap;html=1;" parent="VsHe4cQHPtOiA9iz4xQq-199" vertex="1">
          <mxGeometry y="98" width="320" height="26" as="geometry" />
        </mxCell>
        <mxCell id="9-BU_oQjRqdLFqG4qw6S-4" value="&lt;u&gt;+ ValidateUserAge(date: Date): bool&lt;br&gt;&lt;/u&gt;" style="text;strokeColor=none;fillColor=none;align=left;verticalAlign=top;spacingLeft=4;spacingRight=4;overflow=hidden;rotatable=0;points=[[0,0.5],[1,0.5]];portConstraint=eastwest;whiteSpace=wrap;html=1;" parent="VsHe4cQHPtOiA9iz4xQq-199" vertex="1">
          <mxGeometry y="124" width="320" height="26" as="geometry" />
        </mxCell>
        <mxCell id="9-BU_oQjRqdLFqG4qw6S-5" value="&lt;u&gt;+ ValidatePasswordFormat(passwd: string): bool&lt;br&gt;&lt;/u&gt;" style="text;strokeColor=none;fillColor=none;align=left;verticalAlign=top;spacingLeft=4;spacingRight=4;overflow=hidden;rotatable=0;points=[[0,0.5],[1,0.5]];portConstraint=eastwest;whiteSpace=wrap;html=1;" parent="VsHe4cQHPtOiA9iz4xQq-199" vertex="1">
          <mxGeometry y="150" width="320" height="26" as="geometry" />
        </mxCell>
        <mxCell id="VsHe4cQHPtOiA9iz4xQq-201" value="" style="edgeStyle=orthogonalEdgeStyle;rounded=0;orthogonalLoop=1;jettySize=auto;html=1;fontSize=12;startSize=8;endSize=16;endArrow=block;endFill=0;" parent="1" source="VsHe4cQHPtOiA9iz4xQq-129" target="VsHe4cQHPtOiA9iz4xQq-195" edge="1">
          <mxGeometry relative="1" as="geometry">
            <mxPoint x="315" y="1380" as="sourcePoint" />
            <mxPoint x="445" y="1284" as="targetPoint" />
            <Array as="points">
              <mxPoint x="315" y="1440" />
              <mxPoint x="160" y="1440" />
            </Array>
          </mxGeometry>
        </mxCell>
        <mxCell id="VsHe4cQHPtOiA9iz4xQq-202" value="" style="edgeStyle=orthogonalEdgeStyle;rounded=0;orthogonalLoop=1;jettySize=auto;html=1;fontSize=12;startSize=8;endSize=16;endArrow=block;endFill=0;" parent="1" source="VsHe4cQHPtOiA9iz4xQq-195" target="VsHe4cQHPtOiA9iz4xQq-119" edge="1">
          <mxGeometry relative="1" as="geometry">
            <mxPoint x="315" y="1280" as="sourcePoint" />
            <mxPoint x="445" y="1184" as="targetPoint" />
            <Array as="points">
              <mxPoint x="160" y="1230" />
              <mxPoint x="160" y="1230" />
            </Array>
          </mxGeometry>
        </mxCell>
        <mxCell id="VsHe4cQHPtOiA9iz4xQq-204" value="" style="endArrow=none;html=1;rounded=0;edgeStyle=orthogonalEdgeStyle;" parent="1" source="VsHe4cQHPtOiA9iz4xQq-131" target="VsHe4cQHPtOiA9iz4xQq-129" edge="1">
          <mxGeometry width="50" height="50" relative="1" as="geometry">
            <mxPoint x="155" y="1670" as="sourcePoint" />
            <mxPoint x="205" y="1620" as="targetPoint" />
            <Array as="points">
              <mxPoint x="125" y="1650" />
              <mxPoint x="285" y="1650" />
            </Array>
          </mxGeometry>
        </mxCell>
        <mxCell id="9-BU_oQjRqdLFqG4qw6S-18" value="[1, n]" style="edgeLabel;html=1;align=center;verticalAlign=middle;resizable=0;points=[];" parent="VsHe4cQHPtOiA9iz4xQq-204" connectable="0" vertex="1">
          <mxGeometry x="0.8229" y="3" relative="1" as="geometry">
            <mxPoint x="28" y="-16" as="offset" />
          </mxGeometry>
        </mxCell>
        <mxCell id="9-BU_oQjRqdLFqG4qw6S-19" value="[1, n]" style="edgeLabel;html=1;align=center;verticalAlign=middle;resizable=0;points=[];" parent="VsHe4cQHPtOiA9iz4xQq-204" connectable="0" vertex="1">
          <mxGeometry x="-0.9219" relative="1" as="geometry">
            <mxPoint x="15" as="offset" />
          </mxGeometry>
        </mxCell>
        <mxCell id="9-BU_oQjRqdLFqG4qw6S-25" value="directs" style="edgeLabel;html=1;align=center;verticalAlign=middle;resizable=0;points=[];" parent="VsHe4cQHPtOiA9iz4xQq-204" connectable="0" vertex="1">
          <mxGeometry x="-0.8229" y="-3" relative="1" as="geometry">
            <mxPoint x="-28" y="24" as="offset" />
          </mxGeometry>
        </mxCell>
        <mxCell id="9-BU_oQjRqdLFqG4qw6S-26" value="directed by" style="edgeLabel;html=1;align=center;verticalAlign=middle;resizable=0;points=[];" parent="VsHe4cQHPtOiA9iz4xQq-204" connectable="0" vertex="1">
          <mxGeometry x="0.875" relative="1" as="geometry">
            <mxPoint x="-35" y="-10" as="offset" />
          </mxGeometry>
        </mxCell>
        <mxCell id="VsHe4cQHPtOiA9iz4xQq-205" value="" style="endArrow=none;html=1;rounded=0;edgeStyle=orthogonalEdgeStyle;" parent="1" source="VsHe4cQHPtOiA9iz4xQq-131" target="VsHe4cQHPtOiA9iz4xQq-116" edge="1">
          <mxGeometry width="50" height="50" relative="1" as="geometry">
            <mxPoint x="-15" y="1690" as="sourcePoint" />
            <mxPoint x="-15" y="1540" as="targetPoint" />
            <Array as="points">
              <mxPoint x="-50" y="1650" />
              <mxPoint x="-50" y="1650" />
            </Array>
          </mxGeometry>
        </mxCell>
        <mxCell id="9-BU_oQjRqdLFqG4qw6S-20" value="[1, n]" style="edgeLabel;html=1;align=center;verticalAlign=middle;resizable=0;points=[];" parent="VsHe4cQHPtOiA9iz4xQq-205" connectable="0" vertex="1">
          <mxGeometry x="0.7982" y="-1" relative="1" as="geometry">
            <mxPoint x="19" y="-7" as="offset" />
          </mxGeometry>
        </mxCell>
        <mxCell id="9-BU_oQjRqdLFqG4qw6S-21" value="[1, n]" style="edgeLabel;html=1;align=center;verticalAlign=middle;resizable=0;points=[];" parent="VsHe4cQHPtOiA9iz4xQq-205" connectable="0" vertex="1">
          <mxGeometry x="-0.6754" y="-2" relative="1" as="geometry">
            <mxPoint x="-32" y="17" as="offset" />
          </mxGeometry>
        </mxCell>
        <mxCell id="9-BU_oQjRqdLFqG4qw6S-23" value="stars " style="edgeLabel;html=1;align=center;verticalAlign=middle;resizable=0;points=[];" parent="VsHe4cQHPtOiA9iz4xQq-205" connectable="0" vertex="1">
          <mxGeometry x="0.6053" relative="1" as="geometry">
            <mxPoint x="-30" y="-27" as="offset" />
          </mxGeometry>
        </mxCell>
        <mxCell id="9-BU_oQjRqdLFqG4qw6S-24" value="performs in" style="edgeLabel;html=1;align=center;verticalAlign=middle;resizable=0;points=[];" parent="VsHe4cQHPtOiA9iz4xQq-205" connectable="0" vertex="1">
          <mxGeometry x="-0.614" relative="1" as="geometry">
            <mxPoint x="40" y="24" as="offset" />
          </mxGeometry>
        </mxCell>
        <mxCell id="8GnqbFCGLRigF7MGzgQY-1" value="Payment" style="swimlane;fontStyle=1;align=center;verticalAlign=top;childLayout=stackLayout;horizontal=1;startSize=26;horizontalStack=0;resizeParent=1;resizeParentMax=0;resizeLast=0;collapsible=1;marginBottom=0;whiteSpace=wrap;html=1;" parent="1" vertex="1">
          <mxGeometry x="-635" y="1940" width="300" height="150" as="geometry" />
        </mxCell>
        <mxCell id="9-BU_oQjRqdLFqG4qw6S-35" value="+ CardHolderName: string" style="text;strokeColor=none;fillColor=none;align=left;verticalAlign=top;spacingLeft=4;spacingRight=4;overflow=hidden;rotatable=0;points=[[0,0.5],[1,0.5]];portConstraint=eastwest;whiteSpace=wrap;html=1;" parent="8GnqbFCGLRigF7MGzgQY-1" vertex="1">
          <mxGeometry y="26" width="300" height="24" as="geometry" />
        </mxCell>
        <mxCell id="8GnqbFCGLRigF7MGzgQY-2" value="&lt;div&gt;+ CreditCardNum: string&lt;/div&gt;" style="text;strokeColor=none;fillColor=none;align=left;verticalAlign=top;spacingLeft=4;spacingRight=4;overflow=hidden;rotatable=0;points=[[0,0.5],[1,0.5]];portConstraint=eastwest;whiteSpace=wrap;html=1;" parent="8GnqbFCGLRigF7MGzgQY-1" vertex="1">
          <mxGeometry y="50" width="300" height="24" as="geometry" />
        </mxCell>
        <mxCell id="9-BU_oQjRqdLFqG4qw6S-34" value="+ CardExpirationDate: MM/YYYY" style="text;strokeColor=none;fillColor=none;align=left;verticalAlign=top;spacingLeft=4;spacingRight=4;overflow=hidden;rotatable=0;points=[[0,0.5],[1,0.5]];portConstraint=eastwest;whiteSpace=wrap;html=1;" parent="8GnqbFCGLRigF7MGzgQY-1" vertex="1">
          <mxGeometry y="74" width="300" height="24" as="geometry" />
        </mxCell>
        <mxCell id="K_Ly8g-c0gJvleR2VNSg-1" value="+ CardCVV: string" style="text;strokeColor=none;fillColor=none;align=left;verticalAlign=top;spacingLeft=4;spacingRight=4;overflow=hidden;rotatable=0;points=[[0,0.5],[1,0.5]];portConstraint=eastwest;whiteSpace=wrap;html=1;" parent="8GnqbFCGLRigF7MGzgQY-1" vertex="1">
          <mxGeometry y="98" width="300" height="24" as="geometry" />
        </mxCell>
        <mxCell id="K_Ly8g-c0gJvleR2VNSg-2" value="+ validateCard(string CreditCardNumber): bool" style="text;strokeColor=default;fillColor=none;align=left;verticalAlign=top;spacingLeft=4;spacingRight=4;overflow=hidden;rotatable=0;points=[[0,0.5],[1,0.5]];portConstraint=eastwest;whiteSpace=wrap;html=1;" parent="8GnqbFCGLRigF7MGzgQY-1" vertex="1">
          <mxGeometry y="122" width="300" height="28" as="geometry" />
        </mxCell>
        <mxCell id="8GnqbFCGLRigF7MGzgQY-5" value="" style="endArrow=diamondThin;endFill=1;endSize=24;html=1;rounded=0;edgeStyle=orthogonalEdgeStyle;exitX=0.5;exitY=0;exitDx=0;exitDy=0;" parent="1" source="8GnqbFCGLRigF7MGzgQY-1" target="VsHe4cQHPtOiA9iz4xQq-102" edge="1">
          <mxGeometry width="160" relative="1" as="geometry">
            <mxPoint x="-645" y="1840" as="sourcePoint" />
            <mxPoint x="-525" y="1700" as="targetPoint" />
            <Array as="points">
              <mxPoint x="-525" y="1940" />
            </Array>
          </mxGeometry>
        </mxCell>
        <mxCell id="8GnqbFCGLRigF7MGzgQY-10" value="can make" style="text;html=1;align=center;verticalAlign=middle;resizable=0;points=[];autosize=1;strokeColor=none;fillColor=none;" parent="1" vertex="1">
          <mxGeometry x="-610" y="1910" width="80" height="30" as="geometry" />
        </mxCell>
        <mxCell id="8GnqbFCGLRigF7MGzgQY-11" value="[0,1]" style="text;html=1;align=center;verticalAlign=middle;resizable=0;points=[];autosize=1;strokeColor=none;fillColor=none;" parent="1" vertex="1">
          <mxGeometry x="-530" y="1910" width="50" height="30" as="geometry" />
        </mxCell>
        <mxCell id="8GnqbFCGLRigF7MGzgQY-12" value="[1]" style="text;html=1;align=center;verticalAlign=middle;resizable=0;points=[];autosize=1;strokeColor=none;fillColor=none;" parent="1" vertex="1">
          <mxGeometry x="-520" y="1740" width="40" height="30" as="geometry" />
        </mxCell>
        <mxCell id="8GnqbFCGLRigF7MGzgQY-13" value="can be made by" style="text;html=1;align=center;verticalAlign=middle;resizable=0;points=[];autosize=1;strokeColor=none;fillColor=none;" parent="1" vertex="1">
          <mxGeometry x="-640" y="1740" width="110" height="30" as="geometry" />
        </mxCell>
        <mxCell id="8GnqbFCGLRigF7MGzgQY-15" value="&lt;b&gt;Membership &amp;lt;&amp;lt;Enumeration&amp;gt;&amp;gt;&lt;/b&gt;" style="swimlane;fontStyle=0;childLayout=stackLayout;horizontal=1;startSize=26;fillColor=none;horizontalStack=0;resizeParent=1;resizeParentMax=0;resizeLast=0;collapsible=1;marginBottom=0;whiteSpace=wrap;html=1;" parent="1" vertex="1">
          <mxGeometry x="-830" y="1496" width="140" height="78" as="geometry" />
        </mxCell>
        <mxCell id="8GnqbFCGLRigF7MGzgQY-16" value="REGULAR" style="text;strokeColor=none;fillColor=none;align=left;verticalAlign=top;spacingLeft=4;spacingRight=4;overflow=hidden;rotatable=0;points=[[0,0.5],[1,0.5]];portConstraint=eastwest;whiteSpace=wrap;html=1;" parent="8GnqbFCGLRigF7MGzgQY-15" vertex="1">
          <mxGeometry y="26" width="140" height="26" as="geometry" />
        </mxCell>
        <mxCell id="8GnqbFCGLRigF7MGzgQY-17" value="PREMIUM" style="text;strokeColor=none;fillColor=none;align=left;verticalAlign=top;spacingLeft=4;spacingRight=4;overflow=hidden;rotatable=0;points=[[0,0.5],[1,0.5]];portConstraint=eastwest;whiteSpace=wrap;html=1;" parent="8GnqbFCGLRigF7MGzgQY-15" vertex="1">
          <mxGeometry y="52" width="140" height="26" as="geometry" />
        </mxCell>
        <mxCell id="8GnqbFCGLRigF7MGzgQY-31" value="" style="endArrow=diamondThin;endFill=0;endSize=24;html=1;rounded=0;edgeStyle=orthogonalEdgeStyle;" parent="1" source="8GnqbFCGLRigF7MGzgQY-15" target="VsHe4cQHPtOiA9iz4xQq-102" edge="1">
          <mxGeometry width="160" relative="1" as="geometry">
            <mxPoint x="-665" y="1548.76" as="sourcePoint" />
            <mxPoint x="-605" y="1548.758" as="targetPoint" />
            <Array as="points" />
          </mxGeometry>
        </mxCell>
        <mxCell id="8GnqbFCGLRigF7MGzgQY-36" value="DatabaseUtil" style="swimlane;fontStyle=1;align=center;verticalAlign=top;childLayout=stackLayout;horizontal=1;startSize=26;horizontalStack=0;resizeParent=1;resizeParentMax=0;resizeLast=0;collapsible=1;marginBottom=0;whiteSpace=wrap;html=1;" parent="1" vertex="1">
          <mxGeometry x="-815" y="1130" width="285" height="156" as="geometry" />
        </mxCell>
        <mxCell id="9-BU_oQjRqdLFqG4qw6S-6" value="&lt;u&gt;+ GetUserById(userId: int): User&lt;br&gt;&lt;/u&gt;" style="text;strokeColor=none;fillColor=none;align=left;verticalAlign=top;spacingLeft=4;spacingRight=4;overflow=hidden;rotatable=0;points=[[0,0.5],[1,0.5]];portConstraint=eastwest;whiteSpace=wrap;html=1;" parent="8GnqbFCGLRigF7MGzgQY-36" vertex="1">
          <mxGeometry y="26" width="285" height="26" as="geometry" />
        </mxCell>
        <mxCell id="9-BU_oQjRqdLFqG4qw6S-7" value="&lt;u&gt;+ GetReviewById(reviewId: int)&lt;/u&gt;: Review" style="text;strokeColor=none;fillColor=none;align=left;verticalAlign=top;spacingLeft=4;spacingRight=4;overflow=hidden;rotatable=0;points=[[0,0.5],[1,0.5]];portConstraint=eastwest;whiteSpace=wrap;html=1;" parent="8GnqbFCGLRigF7MGzgQY-36" vertex="1">
          <mxGeometry y="52" width="285" height="26" as="geometry" />
        </mxCell>
        <mxCell id="9-BU_oQjRqdLFqG4qw6S-8" value="&lt;u&gt;+ GetMediaById(mediaId: int): Media&lt;br&gt;&lt;/u&gt;" style="text;strokeColor=none;fillColor=none;align=left;verticalAlign=top;spacingLeft=4;spacingRight=4;overflow=hidden;rotatable=0;points=[[0,0.5],[1,0.5]];portConstraint=eastwest;whiteSpace=wrap;html=1;" parent="8GnqbFCGLRigF7MGzgQY-36" vertex="1">
          <mxGeometry y="78" width="285" height="26" as="geometry" />
        </mxCell>
        <mxCell id="9-BU_oQjRqdLFqG4qw6S-9" value="&lt;u&gt;- GetUserWatchList(userId: int): List&amp;lt;Media&amp;gt;&lt;br&gt;&lt;/u&gt;" style="text;strokeColor=none;fillColor=none;align=left;verticalAlign=top;spacingLeft=4;spacingRight=4;overflow=hidden;rotatable=0;points=[[0,0.5],[1,0.5]];portConstraint=eastwest;whiteSpace=wrap;html=1;" parent="8GnqbFCGLRigF7MGzgQY-36" vertex="1">
          <mxGeometry y="104" width="285" height="26" as="geometry" />
        </mxCell>
        <mxCell id="9-BU_oQjRqdLFqG4qw6S-10" value="&lt;u&gt;- GetUserReviews(userId: int): List&amp;lt;Review&amp;gt;&lt;br&gt;&lt;/u&gt;" style="text;strokeColor=none;fillColor=none;align=left;verticalAlign=top;spacingLeft=4;spacingRight=4;overflow=hidden;rotatable=0;points=[[0,0.5],[1,0.5]];portConstraint=eastwest;whiteSpace=wrap;html=1;" parent="8GnqbFCGLRigF7MGzgQY-36" vertex="1">
          <mxGeometry y="130" width="285" height="26" as="geometry" />
        </mxCell>
        <mxCell id="9-BU_oQjRqdLFqG4qw6S-17" value="" style="endArrow=diamondThin;endFill=1;endSize=24;html=1;rounded=0;edgeStyle=orthogonalEdgeStyle;" parent="1" source="VsHe4cQHPtOiA9iz4xQq-122" target="VsHe4cQHPtOiA9iz4xQq-195" edge="1">
          <mxGeometry width="160" relative="1" as="geometry">
            <mxPoint x="360" y="1310" as="sourcePoint" />
            <mxPoint x="520" y="1310" as="targetPoint" />
            <Array as="points">
              <mxPoint x="685" y="1319" />
            </Array>
          </mxGeometry>
        </mxCell>
        <mxCell id="9-BU_oQjRqdLFqG4qw6S-27" value="[0, n]" style="edgeLabel;html=1;align=center;verticalAlign=middle;resizable=0;points=[];" parent="9-BU_oQjRqdLFqG4qw6S-17" connectable="0" vertex="1">
          <mxGeometry x="-0.9461" y="-3" relative="1" as="geometry">
            <mxPoint x="-38" y="-6" as="offset" />
          </mxGeometry>
        </mxCell>
        <mxCell id="9-BU_oQjRqdLFqG4qw6S-28" value="[1, n]" style="edgeLabel;html=1;align=center;verticalAlign=middle;resizable=0;points=[];" parent="9-BU_oQjRqdLFqG4qw6S-17" connectable="0" vertex="1">
          <mxGeometry x="0.842" y="3" relative="1" as="geometry">
            <mxPoint x="-21" y="-22" as="offset" />
          </mxGeometry>
        </mxCell>
        <mxCell id="9-BU_oQjRqdLFqG4qw6S-29" value="reviews" style="edgeLabel;html=1;align=center;verticalAlign=middle;resizable=0;points=[];" parent="9-BU_oQjRqdLFqG4qw6S-17" connectable="0" vertex="1">
          <mxGeometry x="0.842" y="4" relative="1" as="geometry">
            <mxPoint x="-11" y="17" as="offset" />
          </mxGeometry>
        </mxCell>
        <mxCell id="9-BU_oQjRqdLFqG4qw6S-30" value="is rated by" style="edgeLabel;html=1;align=center;verticalAlign=middle;resizable=0;points=[];" parent="9-BU_oQjRqdLFqG4qw6S-17" connectable="0" vertex="1">
          <mxGeometry x="-0.8767" relative="1" as="geometry">
            <mxPoint x="35" y="19" as="offset" />
          </mxGeometry>
        </mxCell>
      </root>
    </mxGraphModel>
  </diagram>
</mxfile>
